<?xml version="1.0" encoding="UTF-8"?>
<!DOCTYPE svg PUBLIC "-//W3C//DTD SVG 1.1//EN" "http://www.w3.org/Graphics/SVG/1.1/DTD/svg11.dtd">
<svg width="550mm" height="380mm" viewBox="0 0 55000 38000" version="1.1" baseProfile="tiny" xmlns="http://www.w3.org/2000/svg" stroke-width="28.222" stroke-linejoin="round" xml:space="preserve">
 <path fill="rgb(255,255,255)" stroke="none" d="M 27500,37999 L 0,37999 0,-1 55000,-1 55000,37999 27500,37999 Z"/>
 <path fill="none" stroke="rgb(179,179,179)" stroke-linejoin="round" d="M 28559,35227 L 3707,35227 3707,3276 53412,3276 53412,35227 28559,35227 Z"/>
 <path fill="none" stroke="rgb(179,179,179)" stroke-linejoin="round" d="M 3706,3275 L 3706,35226"/>
 <path fill="none" stroke="rgb(179,179,179)" stroke-linejoin="round" d="M 7849,3275 L 7849,35226"/>
 <path fill="none" stroke="rgb(179,179,179)" stroke-linejoin="round" d="M 11991,3275 L 11991,35226"/>
 <path fill="none" stroke="rgb(179,179,179)" stroke-linejoin="round" d="M 16133,3275 L 16133,35226"/>
 <path fill="none" stroke="rgb(179,179,179)" stroke-linejoin="round" d="M 20275,3275 L 20275,35226"/>
 <path fill="none" stroke="rgb(179,179,179)" stroke-linejoin="round" d="M 24417,3275 L 24417,35226"/>
 <path fill="none" stroke="rgb(179,179,179)" stroke-linejoin="round" d="M 28558,3275 L 28558,35226"/>
 <path fill="none" stroke="rgb(179,179,179)" stroke-linejoin="round" d="M 32701,3275 L 32701,35226"/>
 <path fill="none" stroke="rgb(179,179,179)" stroke-linejoin="round" d="M 36843,3275 L 36843,35226"/>
 <path fill="none" stroke="rgb(179,179,179)" stroke-linejoin="round" d="M 40985,3275 L 40985,35226"/>
 <path fill="none" stroke="rgb(179,179,179)" stroke-linejoin="round" d="M 45127,3275 L 45127,35226"/>
 <path fill="none" stroke="rgb(179,179,179)" stroke-linejoin="round" d="M 49269,3275 L 49269,35226"/>
 <path fill="none" stroke="rgb(179,179,179)" stroke-linejoin="round" d="M 53411,3275 L 53411,35226"/>
 <path fill="none" stroke="rgb(179,179,179)" stroke-linejoin="round" d="M 53411,35226 L 3706,35226"/>
 <path fill="none" stroke="rgb(179,179,179)" stroke-linejoin="round" d="M 53411,33836 L 3706,33836"/>
 <path fill="none" stroke="rgb(179,179,179)" stroke-linejoin="round" d="M 53411,32447 L 3706,32447"/>
 <path fill="none" stroke="rgb(179,179,179)" stroke-linejoin="round" d="M 53411,31058 L 3706,31058"/>
 <path fill="none" stroke="rgb(179,179,179)" stroke-linejoin="round" d="M 53411,29669 L 3706,29669"/>
 <path fill="none" stroke="rgb(179,179,179)" stroke-linejoin="round" d="M 53411,28279 L 3706,28279"/>
 <path fill="none" stroke="rgb(179,179,179)" stroke-linejoin="round" d="M 53411,26890 L 3706,26890"/>
 <path fill="none" stroke="rgb(179,179,179)" stroke-linejoin="round" d="M 53411,25501 L 3706,25501"/>
 <path fill="none" stroke="rgb(179,179,179)" stroke-linejoin="round" d="M 53411,24112 L 3706,24112"/>
 <path fill="none" stroke="rgb(179,179,179)" stroke-linejoin="round" d="M 53411,22723 L 3706,22723"/>
 <path fill="none" stroke="rgb(179,179,179)" stroke-linejoin="round" d="M 53411,21333 L 3706,21333"/>
 <path fill="none" stroke="rgb(179,179,179)" stroke-linejoin="round" d="M 53411,19944 L 3706,19944"/>
 <path fill="none" stroke="rgb(179,179,179)" stroke-linejoin="round" d="M 53411,18556 L 3706,18556"/>
 <path fill="none" stroke="rgb(179,179,179)" stroke-linejoin="round" d="M 53411,17167 L 3706,17167"/>
 <path fill="none" stroke="rgb(179,179,179)" stroke-linejoin="round" d="M 53411,15777 L 3706,15777"/>
 <path fill="none" stroke="rgb(179,179,179)" stroke-linejoin="round" d="M 53411,14388 L 3706,14388"/>
 <path fill="none" stroke="rgb(179,179,179)" stroke-linejoin="round" d="M 53411,12999 L 3706,12999"/>
 <path fill="none" stroke="rgb(179,179,179)" stroke-linejoin="round" d="M 53411,11610 L 3706,11610"/>
 <path fill="none" stroke="rgb(179,179,179)" stroke-linejoin="round" d="M 53411,10221 L 3706,10221"/>
 <path fill="none" stroke="rgb(179,179,179)" stroke-linejoin="round" d="M 53411,8831 L 3706,8831"/>
 <path fill="none" stroke="rgb(179,179,179)" stroke-linejoin="round" d="M 53411,7442 L 3706,7442"/>
 <path fill="none" stroke="rgb(179,179,179)" stroke-linejoin="round" d="M 53411,6053 L 3706,6053"/>
 <path fill="none" stroke="rgb(179,179,179)" stroke-linejoin="round" d="M 53411,4664 L 3706,4664"/>
 <path fill="none" stroke="rgb(179,179,179)" stroke-linejoin="round" d="M 53411,3275 L 3706,3275"/>
 <path fill="none" stroke="rgb(179,179,179)" stroke-linejoin="round" d="M 3706,35376 L 3706,35226"/>
 <path fill="none" stroke="rgb(179,179,179)" stroke-linejoin="round" d="M 3706,35376 L 3706,35226"/>
 <path fill="none" stroke="rgb(179,179,179)" stroke-linejoin="round" d="M 7849,35376 L 7849,35226"/>
 <path fill="none" stroke="rgb(179,179,179)" stroke-linejoin="round" d="M 7849,35376 L 7849,35226"/>
 <path fill="none" stroke="rgb(179,179,179)" stroke-linejoin="round" d="M 11991,35376 L 11991,35226"/>
 <path fill="none" stroke="rgb(179,179,179)" stroke-linejoin="round" d="M 11991,35376 L 11991,35226"/>
 <path fill="none" stroke="rgb(179,179,179)" stroke-linejoin="round" d="M 16133,35376 L 16133,35226"/>
 <path fill="none" stroke="rgb(179,179,179)" stroke-linejoin="round" d="M 16133,35376 L 16133,35226"/>
 <path fill="none" stroke="rgb(179,179,179)" stroke-linejoin="round" d="M 20275,35376 L 20275,35226"/>
 <path fill="none" stroke="rgb(179,179,179)" stroke-linejoin="round" d="M 20275,35376 L 20275,35226"/>
 <path fill="none" stroke="rgb(179,179,179)" stroke-linejoin="round" d="M 24417,35376 L 24417,35226"/>
 <path fill="none" stroke="rgb(179,179,179)" stroke-linejoin="round" d="M 24417,35376 L 24417,35226"/>
 <path fill="none" stroke="rgb(179,179,179)" stroke-linejoin="round" d="M 28558,35376 L 28558,35226"/>
 <path fill="none" stroke="rgb(179,179,179)" stroke-linejoin="round" d="M 28558,35376 L 28558,35226"/>
 <path fill="none" stroke="rgb(179,179,179)" stroke-linejoin="round" d="M 32701,35376 L 32701,35226"/>
 <path fill="none" stroke="rgb(179,179,179)" stroke-linejoin="round" d="M 32701,35376 L 32701,35226"/>
 <path fill="none" stroke="rgb(179,179,179)" stroke-linejoin="round" d="M 36843,35376 L 36843,35226"/>
 <path fill="none" stroke="rgb(179,179,179)" stroke-linejoin="round" d="M 36843,35376 L 36843,35226"/>
 <path fill="none" stroke="rgb(179,179,179)" stroke-linejoin="round" d="M 40985,35376 L 40985,35226"/>
 <path fill="none" stroke="rgb(179,179,179)" stroke-linejoin="round" d="M 40985,35376 L 40985,35226"/>
 <path fill="none" stroke="rgb(179,179,179)" stroke-linejoin="round" d="M 45127,35376 L 45127,35226"/>
 <path fill="none" stroke="rgb(179,179,179)" stroke-linejoin="round" d="M 45127,35376 L 45127,35226"/>
 <path fill="none" stroke="rgb(179,179,179)" stroke-linejoin="round" d="M 49269,35376 L 49269,35226"/>
 <path fill="none" stroke="rgb(179,179,179)" stroke-linejoin="round" d="M 49269,35376 L 49269,35226"/>
 <path fill="none" stroke="rgb(179,179,179)" stroke-linejoin="round" d="M 53411,35376 L 53411,35226"/>
 <path fill="none" stroke="rgb(179,179,179)" stroke-linejoin="round" d="M 53411,35376 L 53411,35226"/>
 <path fill="none" stroke="rgb(179,179,179)" stroke-linejoin="round" d="M 3706,35226 L 53411,35226"/>
 <path fill="none" stroke="rgb(179,179,179)" stroke-linejoin="round" d="M 3556,35226 L 3706,35226"/>
 <path fill="none" stroke="rgb(179,179,179)" stroke-linejoin="round" d="M 3556,35226 L 3706,35226"/>
 <path fill="none" stroke="rgb(179,179,179)" stroke-linejoin="round" d="M 3556,33836 L 3706,33836"/>
 <path fill="none" stroke="rgb(179,179,179)" stroke-linejoin="round" d="M 3556,33836 L 3706,33836"/>
 <path fill="none" stroke="rgb(179,179,179)" stroke-linejoin="round" d="M 3556,32447 L 3706,32447"/>
 <path fill="none" stroke="rgb(179,179,179)" stroke-linejoin="round" d="M 3556,32447 L 3706,32447"/>
 <path fill="none" stroke="rgb(179,179,179)" stroke-linejoin="round" d="M 3556,31058 L 3706,31058"/>
 <path fill="none" stroke="rgb(179,179,179)" stroke-linejoin="round" d="M 3556,31058 L 3706,31058"/>
 <path fill="none" stroke="rgb(179,179,179)" stroke-linejoin="round" d="M 3556,29669 L 3706,29669"/>
 <path fill="none" stroke="rgb(179,179,179)" stroke-linejoin="round" d="M 3556,29669 L 3706,29669"/>
 <path fill="none" stroke="rgb(179,179,179)" stroke-linejoin="round" d="M 3556,28279 L 3706,28279"/>
 <path fill="none" stroke="rgb(179,179,179)" stroke-linejoin="round" d="M 3556,28279 L 3706,28279"/>
 <path fill="none" stroke="rgb(179,179,179)" stroke-linejoin="round" d="M 3556,26890 L 3706,26890"/>
 <path fill="none" stroke="rgb(179,179,179)" stroke-linejoin="round" d="M 3556,26890 L 3706,26890"/>
 <path fill="none" stroke="rgb(179,179,179)" stroke-linejoin="round" d="M 3556,25501 L 3706,25501"/>
 <path fill="none" stroke="rgb(179,179,179)" stroke-linejoin="round" d="M 3556,25501 L 3706,25501"/>
 <path fill="none" stroke="rgb(179,179,179)" stroke-linejoin="round" d="M 3556,24112 L 3706,24112"/>
 <path fill="none" stroke="rgb(179,179,179)" stroke-linejoin="round" d="M 3556,24112 L 3706,24112"/>
 <path fill="none" stroke="rgb(179,179,179)" stroke-linejoin="round" d="M 3556,22723 L 3706,22723"/>
 <path fill="none" stroke="rgb(179,179,179)" stroke-linejoin="round" d="M 3556,22723 L 3706,22723"/>
 <path fill="none" stroke="rgb(179,179,179)" stroke-linejoin="round" d="M 3556,21333 L 3706,21333"/>
 <path fill="none" stroke="rgb(179,179,179)" stroke-linejoin="round" d="M 3556,21333 L 3706,21333"/>
 <path fill="none" stroke="rgb(179,179,179)" stroke-linejoin="round" d="M 3556,19944 L 3706,19944"/>
 <path fill="none" stroke="rgb(179,179,179)" stroke-linejoin="round" d="M 3556,19944 L 3706,19944"/>
 <path fill="none" stroke="rgb(179,179,179)" stroke-linejoin="round" d="M 3556,18556 L 3706,18556"/>
 <path fill="none" stroke="rgb(179,179,179)" stroke-linejoin="round" d="M 3556,18556 L 3706,18556"/>
 <path fill="none" stroke="rgb(179,179,179)" stroke-linejoin="round" d="M 3556,17167 L 3706,17167"/>
 <path fill="none" stroke="rgb(179,179,179)" stroke-linejoin="round" d="M 3556,17167 L 3706,17167"/>
 <path fill="none" stroke="rgb(179,179,179)" stroke-linejoin="round" d="M 3556,15777 L 3706,15777"/>
 <path fill="none" stroke="rgb(179,179,179)" stroke-linejoin="round" d="M 3556,15777 L 3706,15777"/>
 <path fill="none" stroke="rgb(179,179,179)" stroke-linejoin="round" d="M 3556,14388 L 3706,14388"/>
 <path fill="none" stroke="rgb(179,179,179)" stroke-linejoin="round" d="M 3556,14388 L 3706,14388"/>
 <path fill="none" stroke="rgb(179,179,179)" stroke-linejoin="round" d="M 3556,12999 L 3706,12999"/>
 <path fill="none" stroke="rgb(179,179,179)" stroke-linejoin="round" d="M 3556,12999 L 3706,12999"/>
 <path fill="none" stroke="rgb(179,179,179)" stroke-linejoin="round" d="M 3556,11610 L 3706,11610"/>
 <path fill="none" stroke="rgb(179,179,179)" stroke-linejoin="round" d="M 3556,11610 L 3706,11610"/>
 <path fill="none" stroke="rgb(179,179,179)" stroke-linejoin="round" d="M 3556,10221 L 3706,10221"/>
 <path fill="none" stroke="rgb(179,179,179)" stroke-linejoin="round" d="M 3556,10221 L 3706,10221"/>
 <path fill="none" stroke="rgb(179,179,179)" stroke-linejoin="round" d="M 3556,8831 L 3706,8831"/>
 <path fill="none" stroke="rgb(179,179,179)" stroke-linejoin="round" d="M 3556,8831 L 3706,8831"/>
 <path fill="none" stroke="rgb(179,179,179)" stroke-linejoin="round" d="M 3556,7442 L 3706,7442"/>
 <path fill="none" stroke="rgb(179,179,179)" stroke-linejoin="round" d="M 3556,7442 L 3706,7442"/>
 <path fill="none" stroke="rgb(179,179,179)" stroke-linejoin="round" d="M 3556,6053 L 3706,6053"/>
 <path fill="none" stroke="rgb(179,179,179)" stroke-linejoin="round" d="M 3556,6053 L 3706,6053"/>
 <path fill="none" stroke="rgb(179,179,179)" stroke-linejoin="round" d="M 3556,4664 L 3706,4664"/>
 <path fill="none" stroke="rgb(179,179,179)" stroke-linejoin="round" d="M 3556,4664 L 3706,4664"/>
 <path fill="none" stroke="rgb(179,179,179)" stroke-linejoin="round" d="M 3556,3275 L 3706,3275"/>
 <path fill="none" stroke="rgb(179,179,179)" stroke-linejoin="round" d="M 3556,3275 L 3706,3275"/>
 <path fill="none" stroke="rgb(179,179,179)" stroke-linejoin="round" d="M 3706,35226 L 3706,3275"/>
 <path fill="rgb(0,69,134)" stroke="none" d="M 49499,35226 L 49960,35226 49960,10100 49499,10100 49499,35226 Z"/>
 <path fill="rgb(0,69,134)" stroke="none" d="M 45357,35226 L 45818,35226 45818,11331 45357,11331 45357,35226 Z"/>
 <path fill="rgb(0,69,134)" stroke="none" d="M 41215,35226 L 41675,35226 41675,10362 41215,10362 41215,35226 Z"/>
 <path fill="rgb(0,69,134)" stroke="none" d="M 37073,35226 L 37533,35226 37533,13664 37073,13664 37073,35226 Z"/>
 <path fill="rgb(0,69,134)" stroke="none" d="M 32931,35226 L 33391,35226 33391,20337 32931,20337 32931,35226 Z"/>
 <path fill="rgb(0,69,134)" stroke="none" d="M 28789,35226 L 29249,35226 29249,8252 28789,8252 28789,35226 Z"/>
 <path fill="rgb(0,69,134)" stroke="none" d="M 24647,35226 L 25108,35226 25108,9768 24647,9768 24647,35226 Z"/>
 <path fill="rgb(0,69,134)" stroke="none" d="M 20505,35226 L 20966,35226 20966,14109 20505,14109 20505,35226 Z"/>
 <path fill="rgb(0,69,134)" stroke="none" d="M 16363,35226 L 16823,35226 16823,11559 16363,11559 16363,35226 Z"/>
 <path fill="rgb(197,0,11)" stroke="none" d="M 49960,35226 L 50420,35226 50420,11117 49960,11117 49960,35226 Z"/>
 <path fill="rgb(197,0,11)" stroke="none" d="M 45818,35226 L 46278,35226 46278,11459 45818,11459 45818,35226 Z"/>
 <path fill="rgb(197,0,11)" stroke="none" d="M 41675,35226 L 42136,35226 42136,10354 41675,10354 41675,35226 Z"/>
 <path fill="rgb(197,0,11)" stroke="none" d="M 37533,35226 L 37993,35226 37993,13449 37533,13449 37533,35226 Z"/>
 <path fill="rgb(197,0,11)" stroke="none" d="M 33391,35226 L 33851,35226 33851,18769 33391,18769 33391,35226 Z"/>
 <path fill="rgb(197,0,11)" stroke="none" d="M 29249,35226 L 29709,35226 29709,9268 29249,9268 29249,35226 Z"/>
 <path fill="rgb(197,0,11)" stroke="none" d="M 25108,35226 L 25568,35226 25568,14438 25108,14438 25108,35226 Z"/>
 <path fill="rgb(197,0,11)" stroke="none" d="M 20966,35226 L 21426,35226 21426,10294 20966,10294 20966,35226 Z"/>
 <path fill="rgb(197,0,11)" stroke="none" d="M 16823,35226 L 17284,35226 17284,10196 16823,10196 16823,35226 Z"/>
 <path fill="rgb(197,0,11)" stroke="none" d="M 12681,35226 L 13141,35226 13141,9230 12681,9230 12681,35226 Z"/>
 <path fill="rgb(197,0,11)" stroke="none" d="M 8539,35226 L 8999,35226 8999,11696 8539,11696 8539,35226 Z"/>
 <path fill="rgb(197,0,11)" stroke="none" d="M 4397,35226 L 4857,35226 4857,12297 4397,12297 4397,35226 Z"/>
 <path fill="rgb(255,211,32)" stroke="none" d="M 50420,35226 L 50880,35226 50880,13446 50420,13446 50420,35226 Z"/>
 <path fill="rgb(255,211,32)" stroke="none" d="M 46278,35226 L 46738,35226 46738,13082 46278,13082 46278,35226 Z"/>
 <path fill="rgb(255,211,32)" stroke="none" d="M 42136,35226 L 42596,35226 42596,11488 42136,11488 42136,35226 Z"/>
 <path fill="rgb(255,211,32)" stroke="none" d="M 37993,35226 L 38454,35226 38454,13194 37993,13194 37993,35226 Z"/>
 <path fill="rgb(255,211,32)" stroke="none" d="M 33851,35226 L 34312,35226 34312,18998 33851,18998 33851,35226 Z"/>
 <path fill="rgb(255,211,32)" stroke="none" d="M 29709,35226 L 30169,35226 30169,10329 29709,10329 29709,35226 Z"/>
 <path fill="rgb(255,211,32)" stroke="none" d="M 25568,35226 L 26028,35226 26028,11962 25568,11962 25568,35226 Z"/>
 <path fill="rgb(255,211,32)" stroke="none" d="M 21426,35226 L 21886,35226 21886,11850 21426,11850 21426,35226 Z"/>
 <path fill="rgb(255,211,32)" stroke="none" d="M 17284,35226 L 17744,35226 17744,11711 17284,11711 17284,35226 Z"/>
 <path fill="rgb(255,211,32)" stroke="none" d="M 13141,35226 L 13602,35226 13602,5981 13141,5981 13141,35226 Z"/>
 <path fill="rgb(255,211,32)" stroke="none" d="M 8999,35226 L 9460,35226 9460,11714 8999,11714 8999,35226 Z"/>
 <path fill="rgb(255,211,32)" stroke="none" d="M 4857,35226 L 5317,35226 5317,12505 4857,12505 4857,35226 Z"/>
 <path fill="rgb(0,102,0)" stroke="none" d="M 50880,35226 L 51340,35226 51340,11800 50880,11800 50880,35226 Z"/>
 <path fill="rgb(0,102,0)" stroke="none" d="M 46738,35226 L 47198,35226 47198,12366 46738,12366 46738,35226 Z"/>
 <path fill="rgb(0,102,0)" stroke="none" d="M 42596,35226 L 43056,35226 43056,12414 42596,12414 42596,35226 Z"/>
 <path fill="rgb(0,102,0)" stroke="none" d="M 38454,35226 L 38914,35226 38914,14426 38454,14426 38454,35226 Z"/>
 <path fill="rgb(0,102,0)" stroke="none" d="M 34312,35226 L 34772,35226 34772,17085 34312,17085 34312,35226 Z"/>
 <path fill="rgb(0,102,0)" stroke="none" d="M 30169,35226 L 30630,35226 30630,14078 30169,14078 30169,35226 Z"/>
 <path fill="rgb(0,102,0)" stroke="none" d="M 26028,35226 L 26488,35226 26488,15374 26028,15374 26028,35226 Z"/>
 <path fill="rgb(0,102,0)" stroke="none" d="M 21886,35226 L 22346,35226 22346,19105 21886,19105 21886,35226 Z"/>
 <path fill="rgb(0,102,0)" stroke="none" d="M 17744,35226 L 18204,35226 18204,14302 17744,14302 17744,35226 Z"/>
 <path fill="rgb(0,102,0)" stroke="none" d="M 13602,35226 L 14062,35226 14062,12879 13602,12879 13602,35226 Z"/>
 <path fill="rgb(0,102,0)" stroke="none" d="M 9460,35226 L 9920,35226 9920,14979 9460,14979 9460,35226 Z"/>
 <path fill="rgb(0,102,0)" stroke="none" d="M 5317,35226 L 5778,35226 5778,13814 5317,13814 5317,35226 Z"/>
 <path fill="rgb(131,202,255)" stroke="none" d="M 51340,35226 L 51801,35226 51801,8482 51340,8482 51340,35226 Z"/>
 <path fill="rgb(131,202,255)" stroke="none" d="M 47198,35226 L 47658,35226 47658,11123 47198,11123 47198,35226 Z"/>
 <path fill="rgb(131,202,255)" stroke="none" d="M 43056,35226 L 43516,35226 43516,8590 43056,8590 43056,35226 Z"/>
 <path fill="rgb(131,202,255)" stroke="none" d="M 38914,35226 L 39374,35226 39374,11020 38914,11020 38914,35226 Z"/>
 <path fill="rgb(131,202,255)" stroke="none" d="M 34772,35226 L 35232,35226 35232,13551 34772,13551 34772,35226 Z"/>
 <path fill="rgb(131,202,255)" stroke="none" d="M 30630,35226 L 31090,35226 31090,10502 30630,10502 30630,35226 Z"/>
 <path fill="rgb(131,202,255)" stroke="none" d="M 26488,35226 L 26949,35226 26949,14729 26488,14729 26488,35226 Z"/>
 <path fill="rgb(131,202,255)" stroke="none" d="M 22346,35226 L 22806,35226 22806,11804 22346,11804 22346,35226 Z"/>
 <path fill="rgb(131,202,255)" stroke="none" d="M 18204,35226 L 18664,35226 18664,11112 18204,11112 18204,35226 Z"/>
 <path fill="rgb(131,202,255)" stroke="none" d="M 14062,35226 L 14522,35226 14522,10669 14062,10669 14062,35226 Z"/>
 <path fill="rgb(131,202,255)" stroke="none" d="M 9920,35226 L 10380,35226 10380,13937 9920,13937 9920,35226 Z"/>
 <path fill="rgb(131,202,255)" stroke="none" d="M 5778,35226 L 6238,35226 6238,13686 5778,13686 5778,35226 Z"/>
 <path fill="rgb(126,0,33)" stroke="none" d="M 51801,35226 L 52261,35226 52261,10385 51801,10385 51801,35226 Z"/>
 <path fill="rgb(126,0,33)" stroke="none" d="M 47658,35226 L 48119,35226 48119,10831 47658,10831 47658,35226 Z"/>
 <path fill="rgb(126,0,33)" stroke="none" d="M 43516,35226 L 43977,35226 43977,8619 43516,8619 43516,35226 Z"/>
 <path fill="rgb(126,0,33)" stroke="none" d="M 39374,35226 L 39834,35226 39834,12284 39374,12284 39374,35226 Z"/>
 <path fill="rgb(126,0,33)" stroke="none" d="M 35232,35226 L 35692,35226 35692,15066 35232,15066 35232,35226 Z"/>
 <path fill="rgb(126,0,33)" stroke="none" d="M 31090,35226 L 31550,35226 31550,9404 31090,9404 31090,35226 Z"/>
 <path fill="rgb(126,0,33)" stroke="none" d="M 26949,35226 L 27409,35226 27409,11237 26949,11237 26949,35226 Z"/>
 <path fill="rgb(126,0,33)" stroke="none" d="M 22806,35226 L 23267,35226 23267,12058 22806,12058 22806,35226 Z"/>
 <path fill="rgb(126,0,33)" stroke="none" d="M 18664,35226 L 19125,35226 19125,9247 18664,9247 18664,35226 Z"/>
 <path fill="rgb(126,0,33)" stroke="none" d="M 14522,35226 L 14982,35226 14982,7697 14522,7697 14522,35226 Z"/>
 <path fill="rgb(126,0,33)" stroke="none" d="M 10380,35226 L 10840,35226 10840,11927 10380,11927 10380,35226 Z"/>
 <path fill="rgb(126,0,33)" stroke="none" d="M 6238,35226 L 6698,35226 6698,11334 6238,11334 6238,35226 Z"/>
 <path fill="rgb(255,149,14)" stroke="none" d="M 52261,35226 L 52721,35226 52721,7673 52261,7673 52261,35226 Z"/>
 <path fill="rgb(255,149,14)" stroke="none" d="M 48119,35226 L 48579,35226 48579,9756 48119,9756 48119,35226 Z"/>
 <path fill="rgb(255,149,14)" stroke="none" d="M 43977,35226 L 44437,35226 44437,7888 43977,7888 43977,35226 Z"/>
 <path fill="rgb(255,149,14)" stroke="none" d="M 39834,35226 L 40295,35226 40295,9291 39834,9291 39834,35226 Z"/>
 <path fill="rgb(255,149,14)" stroke="none" d="M 35692,35226 L 36152,35226 36152,15096 35692,15096 35692,35226 Z"/>
 <path fill="rgb(255,149,14)" stroke="none" d="M 31550,35226 L 32010,35226 32010,9254 31550,9254 31550,35226 Z"/>
 <path fill="rgb(255,149,14)" stroke="none" d="M 27409,35226 L 27868,35226 27868,11093 27409,11093 27409,35226 Z"/>
 <path fill="rgb(255,149,14)" stroke="none" d="M 23267,35226 L 23727,35226 23727,12750 23267,12750 23267,35226 Z"/>
 <path fill="rgb(255,149,14)" stroke="none" d="M 19125,35226 L 19585,35226 19585,7939 19125,7939 19125,35226 Z"/>
 <path fill="rgb(255,149,14)" stroke="none" d="M 14982,35226 L 15443,35226 15443,10124 14982,10124 14982,35226 Z"/>
 <path fill="rgb(255,149,14)" stroke="none" d="M 10840,35226 L 11300,35226 11300,11328 10840,11328 10840,35226 Z"/>
 <path fill="rgb(255,149,14)" stroke="none" d="M 6698,35226 L 7158,35226 7158,11614 6698,11614 6698,35226 Z"/>
 <path fill="rgb(174,207,0)" stroke="none" d="M 40295,35226 L 40755,35226 40755,32811 40295,32811 40295,35226 Z"/>
 <path fill="rgb(174,207,0)" stroke="none" d="M 36152,35226 L 36613,35226 36613,13911 36152,13911 36152,35226 Z"/>
 <path fill="rgb(174,207,0)" stroke="none" d="M 32010,35226 L 32471,35226 32471,8048 32010,8048 32010,35226 Z"/>
 <path fill="rgb(174,207,0)" stroke="none" d="M 27868,35226 L 28328,35226 28328,12189 27868,12189 27868,35226 Z"/>
 <path fill="rgb(174,207,0)" stroke="none" d="M 23727,35226 L 24187,35226 24187,9920 23727,9920 23727,35226 Z"/>
 <path fill="rgb(174,207,0)" stroke="none" d="M 19585,35226 L 20045,35226 20045,7703 19585,7703 19585,35226 Z"/>
 <path fill="rgb(174,207,0)" stroke="none" d="M 15443,35226 L 15903,35226 15903,7148 15443,7148 15443,35226 Z"/>
 <path fill="rgb(174,207,0)" stroke="none" d="M 11300,35226 L 11761,35226 11761,10889 11300,10889 11300,35226 Z"/>
 <path fill="rgb(174,207,0)" stroke="none" d="M 7158,35226 L 7619,35226 7619,9156 7158,9156 7158,35226 Z"/>
 <text class="TextShape"><tspan class="TextParagraph" font-family="Liberation Sans" font-size="540px" font-weight="400"><tspan class="TextPosition" x="4971" y="35979"/><tspan class="TextPosition" x="4971" y="35979"><tspan fill="rgb(0,0,0)" stroke="none">Januar</tspan></tspan></tspan></text>
 <text class="TextShape"><tspan class="TextParagraph" font-family="Liberation Sans" font-size="540px" font-weight="400"><tspan class="TextPosition" x="8994" y="35979"/><tspan class="TextPosition" x="8994" y="35979"><tspan fill="rgb(0,0,0)" stroke="none">Februar</tspan></tspan></tspan></text>
 <text class="TextShape"><tspan class="TextParagraph" font-family="Liberation Sans" font-size="540px" font-weight="400"><tspan class="TextPosition" x="13466" y="35979"/><tspan class="TextPosition" x="13466" y="35979"><tspan fill="rgb(0,0,0)" stroke="none">März</tspan></tspan></tspan></text>
 <text class="TextShape"><tspan class="TextParagraph" font-family="Liberation Sans" font-size="540px" font-weight="400"><tspan class="TextPosition" x="17688" y="35979"/><tspan class="TextPosition" x="17688" y="35979"><tspan fill="rgb(0,0,0)" stroke="none">April</tspan></tspan></tspan></text>
 <text class="TextShape"><tspan class="TextParagraph" font-family="Liberation Sans" font-size="540px" font-weight="400"><tspan class="TextPosition" x="21922" y="35979"/><tspan class="TextPosition" x="21922" y="35979"><tspan fill="rgb(0,0,0)" stroke="none">Mai</tspan></tspan></tspan></text>
 <text class="TextShape"><tspan class="TextParagraph" font-family="Liberation Sans" font-size="540px" font-weight="400"><tspan class="TextPosition" x="26011" y="35979"/><tspan class="TextPosition" x="26011" y="35979"><tspan fill="rgb(0,0,0)" stroke="none">Juni</tspan></tspan></tspan></text>
 <text class="TextShape"><tspan class="TextParagraph" font-family="Liberation Sans" font-size="540px" font-weight="400"><tspan class="TextPosition" x="30247" y="35979"/><tspan class="TextPosition" x="30247" y="35979"><tspan fill="rgb(0,0,0)" stroke="none">Juli</tspan></tspan></tspan></text>
 <text class="TextShape"><tspan class="TextParagraph" font-family="Liberation Sans" font-size="540px" font-weight="400"><tspan class="TextPosition" x="33953" y="35979"/><tspan class="TextPosition" x="33953" y="35979"><tspan fill="rgb(0,0,0)" stroke="none">August</tspan></tspan></tspan></text>
 <text class="TextShape"><tspan class="TextParagraph" font-family="Liberation Sans" font-size="540px" font-weight="400"><tspan class="TextPosition" x="37618" y="35979"/><tspan class="TextPosition" x="37618" y="35979"><tspan fill="rgb(0,0,0)" stroke="none">September</tspan></tspan></tspan></text>
 <text class="TextShape"><tspan class="TextParagraph" font-family="Liberation Sans" font-size="540px" font-weight="400"><tspan class="TextPosition" x="42104" y="35979"/><tspan class="TextPosition" x="42104" y="35979"><tspan fill="rgb(0,0,0)" stroke="none">Oktober</tspan></tspan></tspan></text>
 <text class="TextShape"><tspan class="TextParagraph" font-family="Liberation Sans" font-size="540px" font-weight="400"><tspan class="TextPosition" x="45982" y="35979"/><tspan class="TextPosition" x="45982" y="35979"><tspan fill="rgb(0,0,0)" stroke="none">November</tspan></tspan></tspan></text>
 <text class="TextShape"><tspan class="TextParagraph" font-family="Liberation Sans" font-size="540px" font-weight="400"><tspan class="TextPosition" x="50124" y="35979"/><tspan class="TextPosition" x="50124" y="35979"><tspan fill="rgb(0,0,0)" stroke="none">Dezember</tspan></tspan></tspan></text>
 <text class="TextShape"><tspan class="TextParagraph" font-family="Liberation Sans" font-size="540px" font-weight="400"><tspan class="TextPosition" x="1683" y="35413"/><tspan class="TextPosition" x="1683" y="35413"><tspan fill="rgb(0,0,0)" stroke="none">0.000 €</tspan></tspan></tspan></text>
 <text class="TextShape"><tspan class="TextParagraph" font-family="Liberation Sans" font-size="540px" font-weight="400"><tspan class="TextPosition" x="1683" y="34023"/><tspan class="TextPosition" x="1683" y="34023"><tspan fill="rgb(0,0,0)" stroke="none">2.000 €</tspan></tspan></tspan></text>
 <text class="TextShape"><tspan class="TextParagraph" font-family="Liberation Sans" font-size="540px" font-weight="400"><tspan class="TextPosition" x="1683" y="32634"/><tspan class="TextPosition" x="1683" y="32634"><tspan fill="rgb(0,0,0)" stroke="none">4.000 €</tspan></tspan></tspan></text>
 <text class="TextShape"><tspan class="TextParagraph" font-family="Liberation Sans" font-size="540px" font-weight="400"><tspan class="TextPosition" x="1683" y="31245"/><tspan class="TextPosition" x="1683" y="31245"><tspan fill="rgb(0,0,0)" stroke="none">6.000 €</tspan></tspan></tspan></text>
 <text class="TextShape"><tspan class="TextParagraph" font-family="Liberation Sans" font-size="540px" font-weight="400"><tspan class="TextPosition" x="1683" y="29856"/><tspan class="TextPosition" x="1683" y="29856"><tspan fill="rgb(0,0,0)" stroke="none">8.000 €</tspan></tspan></tspan></text>
 <text class="TextShape"><tspan class="TextParagraph" font-family="Liberation Sans" font-size="540px" font-weight="400"><tspan class="TextPosition" x="1392" y="28466"/><tspan class="TextPosition" x="1392" y="28466"><tspan fill="rgb(0,0,0)" stroke="none">10.000 €</tspan></tspan></tspan></text>
 <text class="TextShape"><tspan class="TextParagraph" font-family="Liberation Sans" font-size="540px" font-weight="400"><tspan class="TextPosition" x="1392" y="27077"/><tspan class="TextPosition" x="1392" y="27077"><tspan fill="rgb(0,0,0)" stroke="none">12.000 €</tspan></tspan></tspan></text>
 <text class="TextShape"><tspan class="TextParagraph" font-family="Liberation Sans" font-size="540px" font-weight="400"><tspan class="TextPosition" x="1392" y="25688"/><tspan class="TextPosition" x="1392" y="25688"><tspan fill="rgb(0,0,0)" stroke="none">14.000 €</tspan></tspan></tspan></text>
 <text class="TextShape"><tspan class="TextParagraph" font-family="Liberation Sans" font-size="540px" font-weight="400"><tspan class="TextPosition" x="1392" y="24299"/><tspan class="TextPosition" x="1392" y="24299"><tspan fill="rgb(0,0,0)" stroke="none">16.000 €</tspan></tspan></tspan></text>
 <text class="TextShape"><tspan class="TextParagraph" font-family="Liberation Sans" font-size="540px" font-weight="400"><tspan class="TextPosition" x="1392" y="22910"/><tspan class="TextPosition" x="1392" y="22910"><tspan fill="rgb(0,0,0)" stroke="none">18.000 €</tspan></tspan></tspan></text>
 <text class="TextShape"><tspan class="TextParagraph" font-family="Liberation Sans" font-size="540px" font-weight="400"><tspan class="TextPosition" x="1392" y="21520"/><tspan class="TextPosition" x="1392" y="21520"><tspan fill="rgb(0,0,0)" stroke="none">20.000 €</tspan></tspan></tspan></text>
 <text class="TextShape"><tspan class="TextParagraph" font-family="Liberation Sans" font-size="540px" font-weight="400"><tspan class="TextPosition" x="1392" y="20131"/><tspan class="TextPosition" x="1392" y="20131"><tspan fill="rgb(0,0,0)" stroke="none">22.000 €</tspan></tspan></tspan></text>
 <text class="TextShape"><tspan class="TextParagraph" font-family="Liberation Sans" font-size="540px" font-weight="400"><tspan class="TextPosition" x="1392" y="18742"/><tspan class="TextPosition" x="1392" y="18742"><tspan fill="rgb(0,0,0)" stroke="none">24.000 €</tspan></tspan></tspan></text>
 <text class="TextShape"><tspan class="TextParagraph" font-family="Liberation Sans" font-size="540px" font-weight="400"><tspan class="TextPosition" x="1392" y="17353"/><tspan class="TextPosition" x="1392" y="17353"><tspan fill="rgb(0,0,0)" stroke="none">26.000 €</tspan></tspan></tspan></text>
 <text class="TextShape"><tspan class="TextParagraph" font-family="Liberation Sans" font-size="540px" font-weight="400"><tspan class="TextPosition" x="1392" y="15963"/><tspan class="TextPosition" x="1392" y="15963"><tspan fill="rgb(0,0,0)" stroke="none">28.000 €</tspan></tspan></tspan></text>
 <text class="TextShape"><tspan class="TextParagraph" font-family="Liberation Sans" font-size="540px" font-weight="400"><tspan class="TextPosition" x="1392" y="14574"/><tspan class="TextPosition" x="1392" y="14574"><tspan fill="rgb(0,0,0)" stroke="none">30.000 €</tspan></tspan></tspan></text>
 <text class="TextShape"><tspan class="TextParagraph" font-family="Liberation Sans" font-size="540px" font-weight="400"><tspan class="TextPosition" x="1392" y="13185"/><tspan class="TextPosition" x="1392" y="13185"><tspan fill="rgb(0,0,0)" stroke="none">32.000 €</tspan></tspan></tspan></text>
 <text class="TextShape"><tspan class="TextParagraph" font-family="Liberation Sans" font-size="540px" font-weight="400"><tspan class="TextPosition" x="1392" y="11796"/><tspan class="TextPosition" x="1392" y="11796"><tspan fill="rgb(0,0,0)" stroke="none">34.000 €</tspan></tspan></tspan></text>
 <text class="TextShape"><tspan class="TextParagraph" font-family="Liberation Sans" font-size="540px" font-weight="400"><tspan class="TextPosition" x="1392" y="10407"/><tspan class="TextPosition" x="1392" y="10407"><tspan fill="rgb(0,0,0)" stroke="none">36.000 €</tspan></tspan></tspan></text>
 <text class="TextShape"><tspan class="TextParagraph" font-family="Liberation Sans" font-size="540px" font-weight="400"><tspan class="TextPosition" x="1392" y="9017"/><tspan class="TextPosition" x="1392" y="9017"><tspan fill="rgb(0,0,0)" stroke="none">38.000 €</tspan></tspan></tspan></text>
 <text class="TextShape"><tspan class="TextParagraph" font-family="Liberation Sans" font-size="540px" font-weight="400"><tspan class="TextPosition" x="1392" y="7628"/><tspan class="TextPosition" x="1392" y="7628"><tspan fill="rgb(0,0,0)" stroke="none">40.000 €</tspan></tspan></tspan></text>
 <text class="TextShape"><tspan class="TextParagraph" font-family="Liberation Sans" font-size="540px" font-weight="400"><tspan class="TextPosition" x="1392" y="6239"/><tspan class="TextPosition" x="1392" y="6239"><tspan fill="rgb(0,0,0)" stroke="none">42.000 €</tspan></tspan></tspan></text>
 <text class="TextShape"><tspan class="TextParagraph" font-family="Liberation Sans" font-size="540px" font-weight="400"><tspan class="TextPosition" x="1392" y="4850"/><tspan class="TextPosition" x="1392" y="4850"><tspan fill="rgb(0,0,0)" stroke="none">44.000 €</tspan></tspan></tspan></text>
 <text class="TextShape"><tspan class="TextParagraph" font-family="Liberation Sans" font-size="540px" font-weight="400"><tspan class="TextPosition" x="1392" y="3461"/><tspan class="TextPosition" x="1392" y="3461"><tspan fill="rgb(0,0,0)" stroke="none">46.000 €</tspan></tspan></tspan></text>
 <text class="TextShape"><tspan class="TextParagraph" font-family="Liberation Sans" font-size="1824px" font-weight="400"><tspan class="TextPosition" x="12621" y="2259"/><tspan class="TextPosition" x="12621" y="2259"><tspan fill="rgb(0,0,0)" stroke="none">Monatsumsatz im Jahresvergleich</tspan></tspan></tspan></text>
 <text class="TextShape"><tspan class="TextParagraph" font-family="Liberation Sans" font-size="388px" font-weight="400"><tspan class="TextPosition" x="49694" y="3762"/><tspan class="TextPosition" x="49694" y="3762"><tspan fill="rgb(0,0,0)" stroke="none">Jahressummen: </tspan></tspan></tspan><tspan class="TextParagraph" font-family="Liberation Sans" font-size="388px" font-weight="400"><tspan class="TextPosition" x="49522" y="4238"/><tspan class="TextPosition" x="49522" y="4238"><tspan fill="rgb(0,0,0)" stroke="none">2011: 403.321,31 €</tspan></tspan></tspan><tspan class="TextParagraph" font-family="Liberation Sans" font-size="388px" font-weight="400"><tspan class="TextPosition" x="49522" y="4714"/><tspan class="TextPosition" x="49522" y="4714"><tspan fill="rgb(0,0,0)" stroke="none">2012: 398.005,32 €</tspan></tspan></tspan><tspan class="TextParagraph" font-family="Liberation Sans" font-size="388px" font-weight="400"><tspan class="TextPosition" x="49522" y="5190"/><tspan class="TextPosition" x="49522" y="5190"><tspan fill="rgb(0,0,0)" stroke="none">2013: 360.053,22 €</tspan></tspan></tspan><tspan class="TextParagraph" font-family="Liberation Sans" font-size="388px" font-weight="400"><tspan class="TextPosition" x="49522" y="5666"/><tspan class="TextPosition" x="49522" y="5666"><tspan fill="rgb(0,0,0)" stroke="none">2014: 408.161,35 €</tspan></tspan></tspan><tspan class="TextParagraph" font-family="Liberation Sans" font-size="388px" font-weight="400"><tspan class="TextPosition" x="49522" y="6142"/><tspan class="TextPosition" x="49522" y="6142"><tspan fill="rgb(0,0,0)" stroke="none">2015: 421.285,19 €</tspan></tspan></tspan><tspan class="TextParagraph" font-family="Liberation Sans" font-size="388px" font-weight="400"><tspan class="TextPosition" x="49522" y="6618"/><tspan class="TextPosition" x="49522" y="6618"><tspan fill="rgb(0,0,0)" stroke="none">2016: 430.331,21 €</tspan></tspan></tspan></text>
 <path fill="rgb(0,69,134)" stroke="none" d="M 14030,37365 L 13747,37365 13747,36798 14314,36798 14314,37365 14030,37365 Z"/>
 <path fill="rgb(197,0,11)" stroke="none" d="M 17546,37365 L 17263,37365 17263,36798 17830,36798 17830,37365 17546,37365 Z"/>
 <path fill="rgb(255,211,32)" stroke="none" d="M 21062,37365 L 20779,37365 20779,36798 21346,36798 21346,37365 21062,37365 Z"/>
 <path fill="rgb(0,102,0)" stroke="none" d="M 24578,37365 L 24295,37365 24295,36798 24862,36798 24862,37365 24578,37365 Z"/>
 <path fill="rgb(131,202,255)" stroke="none" d="M 28094,37365 L 27810,37365 27810,36798 28377,36798 28377,37365 28094,37365 Z"/>
 <path fill="rgb(126,0,33)" stroke="none" d="M 31610,37365 L 31326,37365 31326,36798 31893,36798 31893,37365 31610,37365 Z"/>
 <path fill="rgb(255,149,14)" stroke="none" d="M 35126,37365 L 34842,37365 34842,36798 35409,36798 35409,37365 35126,37365 Z"/>
 <path fill="rgb(174,207,0)" stroke="none" d="M 38642,37365 L 38358,37365 38358,36798 38925,36798 38925,37365 38642,37365 Z"/>
 <text class="TextShape"><tspan class="TextParagraph" font-family="Liberation Sans" font-size="945px" font-weight="400"><tspan class="TextPosition" x="14521" y="37412"/><tspan class="TextPosition" x="14521" y="37412"><tspan fill="rgb(0,0,0)" stroke="none">2010</tspan></tspan></tspan></text>
 <text class="TextShape"><tspan class="TextParagraph" font-family="Liberation Sans" font-size="945px" font-weight="400"><tspan class="TextPosition" x="18037" y="37412"/><tspan class="TextPosition" x="18037" y="37412"><tspan fill="rgb(0,0,0)" stroke="none">2011</tspan></tspan></tspan></text>
 <text class="TextShape"><tspan class="TextParagraph" font-family="Liberation Sans" font-size="945px" font-weight="400"><tspan class="TextPosition" x="21553" y="37412"/><tspan class="TextPosition" x="21553" y="37412"><tspan fill="rgb(0,0,0)" stroke="none">2012</tspan></tspan></tspan></text>
 <text class="TextShape"><tspan class="TextParagraph" font-family="Liberation Sans" font-size="945px" font-weight="400"><tspan class="TextPosition" x="25069" y="37412"/><tspan class="TextPosition" x="25069" y="37412"><tspan fill="rgb(0,0,0)" stroke="none">2013</tspan></tspan></tspan></text>
 <text class="TextShape"><tspan class="TextParagraph" font-family="Liberation Sans" font-size="945px" font-weight="400"><tspan class="TextPosition" x="28584" y="37412"/><tspan class="TextPosition" x="28584" y="37412"><tspan fill="rgb(0,0,0)" stroke="none">2014</tspan></tspan></tspan></text>
 <text class="TextShape"><tspan class="TextParagraph" font-family="Liberation Sans" font-size="945px" font-weight="400"><tspan class="TextPosition" x="32100" y="37412"/><tspan class="TextPosition" x="32100" y="37412"><tspan fill="rgb(0,0,0)" stroke="none">2015</tspan></tspan></tspan></text>
 <text class="TextShape"><tspan class="TextParagraph" font-family="Liberation Sans" font-size="945px" font-weight="400"><tspan class="TextPosition" x="35616" y="37412"/><tspan class="TextPosition" x="35616" y="37412"><tspan fill="rgb(0,0,0)" stroke="none">2016</tspan></tspan></tspan></text>
 <text class="TextShape"><tspan class="TextParagraph" font-family="Liberation Sans" font-size="945px" font-weight="400"><tspan class="TextPosition" x="39132" y="37412"/><tspan class="TextPosition" x="39132" y="37412"><tspan fill="rgb(0,0,0)" stroke="none">2017</tspan></tspan></tspan></text>
 <text class="TextShape"><tspan class="TextParagraph" font-family="Liberation Sans" font-size="607px" font-weight="400"><tspan class="TextPosition" x="1257" y="37411"/><tspan class="TextPosition" x="1257" y="37411"><tspan fill="rgb(0,0,0)" stroke="none">Alle Werte sind Brutto-Angaben</tspan></tspan></tspan></text>
 <text class="TextShape"><tspan class="TextParagraph" font-family="Liberation Sans" font-size="607px" font-weight="400"><tspan class="TextPosition" x="44957" y="36784"/><tspan class="TextPosition" x="44957" y="36784"><tspan fill="rgb(0,0,0)" stroke="none">© Unser Herrlesbergladen eG</tspan></tspan></tspan><tspan class="TextParagraph" font-family="Liberation Sans" font-size="607px" font-weight="400"><tspan class="TextPosition" x="45394" y="37472"/><tspan class="TextPosition" x="45394" y="37472"><tspan fill="rgb(0,0,0)" stroke="none">                    </tspan></tspan><tspan class="TextPosition" x="48569" y="37472"><tspan fill="rgb(0,0,0)" stroke="none">Stand 3.9.2017</tspan></tspan></tspan></text>
</svg>